<svg width="50" height="30" viewBox="0 0 50 30" fill="none" xmlns="http://www.w3.org/2000/svg">
<path d="M11 8C10.51 8 10.125 8.385 10.125 8.875C10.125 9.365 10.51 9.75 11 9.75C11.49 9.75 11.875 9.365 11.875 8.875C11.875 8.385 11.49 8 11 8ZM6.625 9.75C6.135 9.75 5.75 10.135 5.75 10.625C5.75 11.115 6.135 11.5 6.625 11.5C7.115 11.5 7.5 11.115 7.5 10.625C7.5 10.135 7.115 9.75 6.625 9.75ZM15.375 9.75C14.885 9.75 14.5 10.135 14.5 10.625C14.5 11.115 14.885 11.5 15.375 11.5C15.865 11.5 16.25 11.115 16.25 10.625C16.25 10.135 15.865 9.75 15.375 9.75ZM11 11.5C9.075 11.5 7.5 13.075 7.5 15C7.5 16.925 9.075 18.5 11 18.5C12.925 18.5 14.5 16.925 14.5 15C14.5 13.075 12.925 11.5 11 11.5ZM4.875 14.125C4.385 14.125 4 14.51 4 15C4 15.49 4.385 15.875 4.875 15.875C5.365 15.875 5.75 15.49 5.75 15C5.75 14.51 5.365 14.125 4.875 14.125ZM17.125 14.125C16.635 14.125 16.25 14.51 16.25 15C16.25 15.49 16.635 15.875 17.125 15.875C17.615 15.875 18 15.49 18 15C18 14.51 17.615 14.125 17.125 14.125ZM6.625 18.5C6.135 18.5 5.75 18.885 5.75 19.375C5.75 19.865 6.135 20.25 6.625 20.25C7.115 20.25 7.5 19.865 7.5 19.375C7.5 18.885 7.115 18.5 6.625 18.5ZM15.375 18.5C14.885 18.5 14.5 18.885 14.5 19.375C14.5 19.865 14.885 20.25 15.375 20.25C15.865 20.25 16.25 19.865 16.25 19.375C16.25 18.885 15.865 18.5 15.375 18.5ZM11 20.25C10.51 20.25 10.125 20.635 10.125 21.125C10.125 21.615 10.51 22 11 22C11.49 22 11.875 21.615 11.875 21.125C11.875 20.635 11.49 20.25 11 20.25Z" fill="white"/>
<path d="M36.8946 8C34.0514 8.95373 32 11.635 32 14.8021C32 18.7789 35.2211 22 39.1979 22C42.365 22 45.0463 19.9486 46 17.1054C45.2802 17.3393 44.5064 17.5013 43.6967 17.5013C39.7198 17.5013 36.4987 14.2802 36.4987 10.3033C36.4987 9.49357 36.6427 8.71979 36.8946 8Z" fill="black"/>
</svg>
